<svg xmlns="http://www.w3.org/2000/svg" xmlns:xlink="http://www.w3.org/1999/xlink" xmlns:lucid="lucid" width="1020" height="700"><g transform="translate(-140 -80)" lucid:page-tab-id="0_0"><path d="M292 100c-72.9 0-132 59.1-132 132v396c0 72.9 59.1 132 132 132h716c72.9 0 132-59.1 132-132V232c0-72.9-59.1-132-132-132z" stroke="#000" stroke-width="2" fill="#fff"/><use xlink:href="#a" transform="matrix(1,0,0,1,168,108) translate(402.8148148148148 21.333333333333336)"/><use xlink:href="#b" transform="matrix(1,0,0,1,168,108) translate(497.48148148148147 21.333333333333336)"/><path d="M376 160c-41.97 0-76 34.03-76 76v428c0 41.97 34.03 76 76 76h228c41.97 0 76-34.03 76-76V236c0-41.97-34.03-76-76-76z" stroke="#000" stroke-width="2" fill="#fff"/><path d="M300 204h380" stroke="#000" stroke-width="2" fill="none"/><use xlink:href="#c" transform="matrix(1,0,0,1,376,160) translate(66.07499999999999 25.6)"/><use xlink:href="#d" transform="matrix(1,0,0,1,376,160) translate(109.975 25.6)"/><use xlink:href="#e" transform="matrix(1,0,0,1,338,220) translate(0 14.4)"/><use xlink:href="#f" transform="matrix(1,0,0,1,338,220) translate(46.95 14.4)"/><use xlink:href="#g" transform="matrix(1,0,0,1,338,220) translate(56.95 14.4)"/><use xlink:href="#h" transform="matrix(1,0,0,1,338,220) translate(98.2 14.4)"/><use xlink:href="#i" transform="matrix(1,0,0,1,338,220) translate(122.85 14.4)"/><path d="M431.28 560.5h-2v-69.7h2zm.4-91.3h-2V382h2z"/><path d="M431.67 382.03h-2V381h2zM430.28 575.76l-4.64-14.26h9.27z"/><path d="M430.28 579l-6.02-18.5h12.03zm-3.26-16.5l3.26 10.03 3.25-10.03z"/><use xlink:href="#j" transform="matrix(1,0,0,1,411.49636150234744,469.2) translate(0 14.4)"/><path d="M573.42 578h-2l1-87.2h2zm2.04-178.5l-.8 69.7h-2l.8-69.7z"/><path d="M573.42 578v1h-2v-1.04zM579.1 398.55l-9.27-.1 4.8-14.2z"/><path d="M580.47 399.57l-12.03-.14 6.23-18.43zm-9.25-2.1l6.52.07-3.15-10.07z"/><use xlink:href="#k" transform="matrix(1,0,0,1,555.0361502347419,469.2) translate(0 14.4)"/><path d="M491 538h-2v-47.2h2zm0-68.8h-2v-29.7h2z"/><path d="M491 539h-2v-1.03h2zM494.64 438.5h-9.28l4.64-14.26z"/><path d="M496 439.5h-12l6-18.5zm-9.26-2h6.52L490 427.47z"/><use xlink:href="#l" transform="matrix(1,0,0,1,457.8999999999999,469.2) translate(0 14.4)"/><path d="M340 310c0 5.52-4.48 10-10 10s-10-4.48-10-10 4.48-10 10-10 10 4.48 10 10z" stroke="#000" stroke-width="2"/><path d="M330 322v28h20.5" stroke="#000" stroke-width="2" fill="none"/><path d="M331 322.04h-2v-1.2l1 .17 1-.15z"/><path d="M365.76 350l-14.26 4.64v-9.28z" stroke="#000" stroke-width="2"/><path d="M961 360.5h-2V251H784.3v-2H961zM691.4 251H491v27h-2v-29h202.4z"/><path d="M491 279h-2v-1.03h2zM960 375.76l-4.64-14.26h9.28z"/><path d="M960 379l-6-18.5h12zm-3.26-16.5l3.26 10.03 3.26-10.03z"/><use xlink:href="#m" transform="matrix(1,0,0,1,691.3997942386831,239.2) translate(0 14.4)"/><path d="M838 450h-78.08" stroke="#000" stroke-width="2" fill="none"/><path d="M839 451h-1.03v-2H839z"/><path d="M744.65 450l14.27-4.64v9.28z" stroke="#000" stroke-width="2"/><use xlink:href="#n" transform="matrix(1,0,0,1,742.8071067811866,424.4) translate(0 14.4)"/><path d="M868 380c-15.46 0-28 12.54-28 28v84c0 15.46 12.54 28 28 28h184c15.46 0 28-12.54 28-28v-84c0-15.46-12.54-28-28-28z" stroke="#000" stroke-width="2" fill="#fff"/><path d="M840 424h240" stroke="#000" stroke-width="2" fill="none"/><use xlink:href="#c" transform="matrix(1,0,0,1,888,380) translate(18.549999999999997 25.6)"/><use xlink:href="#o" transform="matrix(1,0,0,1,888,380) translate(62.45 25.6)"/><use xlink:href="#e" transform="matrix(1,0,0,1,864,440) translate(0 14.4)"/><use xlink:href="#f" transform="matrix(1,0,0,1,864,440) translate(46.95 14.4)"/><use xlink:href="#g" transform="matrix(1,0,0,1,864,440) translate(56.95 14.4)"/><use xlink:href="#p" transform="matrix(1,0,0,1,864,440) translate(98.2 14.4)"/><use xlink:href="#i" transform="matrix(1,0,0,1,864,440) translate(127.2 14.4)"/><path d="M398 280c-15.46 0-28 12.54-28 28v84c0 15.46 12.54 28 28 28h184c15.46 0 28-12.54 28-28v-84c0-15.46-12.54-28-28-28z" stroke="#000" stroke-width="2" fill="#fff"/><path d="M370 324h240" stroke="#000" stroke-width="2" fill="none"/><use xlink:href="#q" transform="matrix(1,0,0,1,418,280) translate(54.55 25.6)"/><use xlink:href="#r" transform="matrix(1,0,0,1,393.99999999999994,340) translate(0 14.4)"/><use xlink:href="#s" transform="matrix(1,0,0,1,393.99999999999994,340) translate(42.95 14.4)"/><use xlink:href="#t" transform="matrix(1,0,0,1,393.99999999999994,340) translate(57.95 14.4)"/><use xlink:href="#u" transform="matrix(1,0,0,1,393.99999999999994,340) translate(89.95 14.4)"/><path d="M720 430l20 20-20 20-20-20z" stroke="#000" stroke-width="2" fill="#fff"/><path d="M720 427.6V350h-90.5" stroke="#000" stroke-width="2" fill="none"/><path d="M721 429.6l-1-1-1 1v-2.04h2z"/><path d="M614.24 350l14.26-4.64v9.28z" stroke="#000" stroke-width="2"/><use xlink:href="#v" transform="matrix(1,0,0,1,688.9473040556426,325.8429967808936) translate(0 14.4)"/><use xlink:href="#w" transform="matrix(1,0,0,1,688.9473040556426,325.8429967808936) translate(50.150000000000006 14.4)"/><use xlink:href="#x" transform="matrix(1,0,0,1,688.9473040556426,325.8429967808936) translate(76.15 14.4)"/><path d="M721 611h-91.5v-2H719V472.4h2z"/><path d="M721 472.44h-2v-2.03l1 1 1-1zM628.5 614.64L614.24 610l14.26-4.64z"/><path d="M629.5 616l-18.5-6 18.5-6zm-12.03-6l10.03 3.26v-6.52z"/><g><use xlink:href="#v" transform="matrix(1,0,0,1,720.0643512321019,605.3875306721003) translate(0 14.4)"/><use xlink:href="#y" transform="matrix(1,0,0,1,720.0643512321019,605.3875306721003) translate(50.150000000000006 14.4)"/><use xlink:href="#x" transform="matrix(1,0,0,1,720.0643512321019,605.3875306721003) translate(65.65 14.4)"/></g><path d="M491 720h214.65v2H489v-40h2zm470 2H798.55v-2H959V539.5h2z"/><path d="M491 682.03h-2V681h2zM964.64 538.5h-9.28l4.64-14.26z"/><path d="M966 539.5h-12l6-18.5zm-9.26-2h6.52L960 527.47z"/><g><use xlink:href="#m" transform="matrix(1,0,0,1,705.6480392156861,710.2) translate(0 14.4)"/></g><path d="M398 540c-15.46 0-28 12.54-28 28v84c0 15.46 12.54 28 28 28h184c15.46 0 28-12.54 28-28v-84c0-15.46-12.54-28-28-28z" stroke="#000" stroke-width="2" fill="#fff"/><path d="M370 584h240" stroke="#000" stroke-width="2" fill="none"/><g><use xlink:href="#z" transform="matrix(1,0,0,1,417.9999999999999,540) translate(59.025 25.6)"/></g><g><use xlink:href="#e" transform="matrix(1,0,0,1,393.9999999999999,600) translate(0 14.4)"/><use xlink:href="#f" transform="matrix(1,0,0,1,393.9999999999999,600) translate(46.95 14.4)"/><use xlink:href="#g" transform="matrix(1,0,0,1,393.9999999999999,600) translate(56.95 14.4)"/><use xlink:href="#p" transform="matrix(1,0,0,1,393.9999999999999,600) translate(98.2 14.4)"/><use xlink:href="#A" transform="matrix(1,0,0,1,393.9999999999999,600) translate(127.2 14.4)"/><use xlink:href="#B" transform="matrix(1,0,0,1,393.9999999999999,600) translate(0 36)"/><use xlink:href="#f" transform="matrix(1,0,0,1,393.9999999999999,600) translate(34.95 36)"/><use xlink:href="#g" transform="matrix(1,0,0,1,393.9999999999999,600) translate(44.95 36)"/><use xlink:href="#C" transform="matrix(1,0,0,1,393.9999999999999,600) translate(86.2 36)"/><use xlink:href="#D" transform="matrix(1,0,0,1,393.9999999999999,600) translate(127.10000000000001 36)"/></g><defs><path d="M127-220V0H93v-220H8v-28h204v28h-85" id="E"/><path d="M100-194c62-1 85 37 85 99 1 63-27 99-86 99S16-35 15-95c0-66 28-99 85-99zM99-20c44 1 53-31 53-75 0-43-8-75-51-75s-53 32-53 75 10 74 51 75" id="F"/><path d="M141-36C126-15 110 5 73 4 37 3 15-17 15-53c-1-64 63-63 125-63 3-35-9-54-41-54-24 1-41 7-42 31l-33-3c5-37 33-52 76-52 45 0 72 20 72 64v82c-1 20 7 32 28 27v20c-31 9-61-2-59-35zM48-53c0 20 12 33 32 33 41-3 63-29 60-74-43 2-92-5-92 41" id="G"/><path d="M135-143c-3-34-86-38-87 0 15 53 115 12 119 90S17 21 10-45l28-5c4 36 97 45 98 0-10-56-113-15-118-90-4-57 82-63 122-42 12 7 21 19 24 35" id="H"/><path d="M59-47c-2 24 18 29 38 22v24C64 9 27 4 27-40v-127H5v-23h24l9-43h21v43h35v23H59v120" id="I"/><path d="M100-194c63 0 86 42 84 106H49c0 40 14 67 53 68 26 1 43-12 49-29l28 8c-11 28-37 45-77 45C44 4 14-33 15-96c1-61 26-98 85-98zm52 81c6-60-76-77-97-28-3 7-6 17-6 28h103" id="J"/><path d="M114-163C36-179 61-72 57 0H25l-1-190h30c1 12-1 29 2 39 6-27 23-49 58-41v29" id="K"/><g id="a"><use transform="matrix(0.07407407407407408,0,0,0.07407407407407408,0,0)" xlink:href="#E"/><use transform="matrix(0.07407407407407408,0,0,0.07407407407407408,13.259259259259261,0)" xlink:href="#F"/><use transform="matrix(0.07407407407407408,0,0,0.07407407407407408,28.074074074074076,0)" xlink:href="#G"/><use transform="matrix(0.07407407407407408,0,0,0.07407407407407408,42.88888888888889,0)" xlink:href="#H"/><use transform="matrix(0.07407407407407408,0,0,0.07407407407407408,56.22222222222223,0)" xlink:href="#I"/><use transform="matrix(0.07407407407407408,0,0,0.07407407407407408,63.629629629629626,0)" xlink:href="#J"/><use transform="matrix(0.07407407407407408,0,0,0.07407407407407408,78.44444444444446,0)" xlink:href="#K"/></g><path d="M140-251c81 0 123 46 123 126C263-46 219 4 140 4 59 4 17-45 17-125s42-126 123-126zm0 227c63 0 89-41 89-101s-29-99-89-99c-61 0-89 39-89 99S79-25 140-24" id="L"/><path d="M108 0H70L1-190h34L89-25l56-165h34" id="M"/><path d="M117-194c89-4 53 116 60 194h-32v-121c0-31-8-49-39-48C34-167 62-67 57 0H25l-1-190h30c1 10-1 24 2 32 11-22 29-35 61-36" id="N"/><g id="b"><use transform="matrix(0.07407407407407408,0,0,0.07407407407407408,0,0)" xlink:href="#L"/><use transform="matrix(0.07407407407407408,0,0,0.07407407407407408,20.740740740740744,0)" xlink:href="#M"/><use transform="matrix(0.07407407407407408,0,0,0.07407407407407408,34.074074074074076,0)" xlink:href="#J"/><use transform="matrix(0.07407407407407408,0,0,0.07407407407407408,48.88888888888889,0)" xlink:href="#N"/></g><path d="M30-248c118-7 216 8 213 122C240-48 200 0 122 0H30v-248zM63-27c89 8 146-16 146-99s-60-101-146-95v194" id="O"/><g id="c"><use transform="matrix(0.05,0,0,0.05,0,0)" xlink:href="#O"/><use transform="matrix(0.05,0,0,0.05,12.950000000000001,0)" xlink:href="#F"/><use transform="matrix(0.05,0,0,0.05,22.950000000000003,0)" xlink:href="#F"/><use transform="matrix(0.05,0,0,0.05,32.95,0)" xlink:href="#K"/></g><path d="M96-169c-40 0-48 33-48 73s9 75 48 75c24 0 41-14 43-38l32 2c-6 37-31 61-74 61-59 0-76-41-82-99-10-93 101-131 147-64 4 7 5 14 7 22l-32 3c-4-21-16-35-41-35" id="P"/><path d="M24 0v-261h32V0H24" id="Q"/><path d="M85-194c31 0 48 13 60 33l-1-100h32l1 261h-30c-2-10 0-23-3-31C134-8 116 4 85 4 32 4 16-35 15-94c0-66 23-100 70-100zm9 24c-40 0-46 34-46 75 0 40 6 74 45 74 42 0 51-32 51-76 0-42-9-74-50-73" id="R"/><g id="d"><use transform="matrix(0.05,0,0,0.05,0,0)" xlink:href="#P"/><use transform="matrix(0.05,0,0,0.05,9,0)" xlink:href="#Q"/><use transform="matrix(0.05,0,0,0.05,12.949999999999998,0)" xlink:href="#F"/><use transform="matrix(0.05,0,0,0.05,22.95,0)" xlink:href="#H"/><use transform="matrix(0.05,0,0,0.05,31.950000000000003,0)" xlink:href="#J"/><use transform="matrix(0.05,0,0,0.05,41.95,0)" xlink:href="#R"/></g><path d="M30 0v-248h187v28H63v79h144v27H63v87h162V0H30" id="S"/><path d="M179-190L93 31C79 59 56 82 12 73V49c39 6 53-20 64-50L1-190h34L92-34l54-156h33" id="T"/><g id="e"><use transform="matrix(0.05,0,0,0.05,0,0)" xlink:href="#S"/><use transform="matrix(0.05,0,0,0.05,12,0)" xlink:href="#N"/><use transform="matrix(0.05,0,0,0.05,22,0)" xlink:href="#I"/><use transform="matrix(0.05,0,0,0.05,27,0)" xlink:href="#K"/><use transform="matrix(0.05,0,0,0.05,32.95,0)" xlink:href="#T"/></g><path d="M0 4l72-265h28L28 4H0" id="U"/><use transform="matrix(0.05,0,0,0.05,0,0)" xlink:href="#U" id="f"/><path d="M84 4C-5 8 30-112 23-190h32v120c0 31 7 50 39 49 72-2 45-101 50-169h31l1 190h-30c-1-10 1-25-2-33-11 22-28 36-60 37" id="V"/><g id="g"><use transform="matrix(0.05,0,0,0.05,0,0)" xlink:href="#E"/><use transform="matrix(0.05,0,0,0.05,10.3,0)" xlink:href="#V"/><use transform="matrix(0.05,0,0,0.05,20.3,0)" xlink:href="#K"/><use transform="matrix(0.05,0,0,0.05,26.25,0)" xlink:href="#N"/></g><path d="M101-234c-31-9-42 10-38 44h38v23H63V0H32v-167H5v-23h27c-7-52 17-82 69-68v24" id="W"/><g id="h"><use transform="matrix(0.05,0,0,0.05,0,0)" xlink:href="#F"/><use transform="matrix(0.05,0,0,0.05,10,0)" xlink:href="#W"/><use transform="matrix(0.05,0,0,0.05,14.65,0)" xlink:href="#W"/></g><path d="M210-169c-67 3-38 105-44 169h-31v-121c0-29-5-50-35-48C34-165 62-65 56 0H25l-1-190h30c1 10-1 24 2 32 10-44 99-50 107 0 11-21 27-35 58-36 85-2 47 119 55 194h-31v-121c0-29-5-49-35-48" id="X"/><path d="M115-194c55 1 70 41 70 98S169 2 115 4C84 4 66-9 55-30l1 105H24l-1-265h31l2 30c10-21 28-34 59-34zm-8 174c40 0 45-34 45-75s-6-73-45-74c-42 0-51 32-51 76 0 43 10 73 51 73" id="Y"/><g id="i"><use transform="matrix(0.05,0,0,0.05,0,0)" xlink:href="#Q"/><use transform="matrix(0.05,0,0,0.05,3.95,0)" xlink:href="#G"/><use transform="matrix(0.05,0,0,0.05,13.949999999999998,0)" xlink:href="#X"/><use transform="matrix(0.05,0,0,0.05,28.899999999999995,0)" xlink:href="#Y"/></g><path d="M185-189c-5-48-123-54-124 2 14 75 158 14 163 119 3 78-121 87-175 55-17-10-28-26-33-46l33-7c5 56 141 63 141-1 0-78-155-14-162-118-5-82 145-84 179-34 5 7 8 16 11 25" id="Z"/><g id="j"><use transform="matrix(0.05,0,0,0.05,0,0)" xlink:href="#Z"/><use transform="matrix(0.05,0,0,0.05,12,0)" xlink:href="#I"/><use transform="matrix(0.05,0,0,0.05,17,0)" xlink:href="#G"/><use transform="matrix(0.05,0,0,0.05,27,0)" xlink:href="#K"/><use transform="matrix(0.05,0,0,0.05,32.95,0)" xlink:href="#I"/></g><g id="k"><use transform="matrix(0.05,0,0,0.05,0,0)" xlink:href="#Z"/><use transform="matrix(0.05,0,0,0.05,12,0)" xlink:href="#I"/><use transform="matrix(0.05,0,0,0.05,17,0)" xlink:href="#F"/><use transform="matrix(0.05,0,0,0.05,27,0)" xlink:href="#Y"/></g><path d="M24-231v-30h32v30H24zM24 0v-190h32V0H24" id="aa"/><g id="l"><use transform="matrix(0.05,0,0,0.05,0,0)" xlink:href="#E"/><use transform="matrix(0.05,0,0,0.05,10.3,0)" xlink:href="#aa"/><use transform="matrix(0.05,0,0,0.05,14.25,0)" xlink:href="#X"/><use transform="matrix(0.05,0,0,0.05,29.200000000000003,0)" xlink:href="#J"/><use transform="matrix(0.05,0,0,0.05,39.2,0)" xlink:href="#F"/><use transform="matrix(0.05,0,0,0.05,49.2,0)" xlink:href="#V"/><use transform="matrix(0.05,0,0,0.05,59.2,0)" xlink:href="#I"/></g><path d="M-5 72V49h209v23H-5" id="ab"/><g id="m"><use transform="matrix(0.05,0,0,0.05,0,0)" xlink:href="#O"/><use transform="matrix(0.05,0,0,0.05,12.950000000000001,0)" xlink:href="#F"/><use transform="matrix(0.05,0,0,0.05,22.950000000000003,0)" xlink:href="#F"/><use transform="matrix(0.05,0,0,0.05,32.95,0)" xlink:href="#K"/><use transform="matrix(0.05,0,0,0.05,38.900000000000006,0)" xlink:href="#ab"/><use transform="matrix(0.05,0,0,0.05,48.900000000000006,0)" xlink:href="#L"/><use transform="matrix(0.05,0,0,0.05,62.900000000000006,0)" xlink:href="#Y"/><use transform="matrix(0.05,0,0,0.05,72.9,0)" xlink:href="#J"/><use transform="matrix(0.05,0,0,0.05,82.9,0)" xlink:href="#N"/></g><path d="M212-179c-10-28-35-45-73-45-59 0-87 40-87 99 0 60 29 101 89 101 43 0 62-24 78-52l27 14C228-24 195 4 139 4 59 4 22-46 18-125c-6-104 99-153 187-111 19 9 31 26 39 46" id="ac"/><g id="n"><use transform="matrix(0.05,0,0,0.05,0,0)" xlink:href="#O"/><use transform="matrix(0.05,0,0,0.05,12.950000000000001,0)" xlink:href="#F"/><use transform="matrix(0.05,0,0,0.05,22.950000000000003,0)" xlink:href="#F"/><use transform="matrix(0.05,0,0,0.05,32.95,0)" xlink:href="#K"/><use transform="matrix(0.05,0,0,0.05,38.900000000000006,0)" xlink:href="#ab"/><use transform="matrix(0.05,0,0,0.05,48.900000000000006,0)" xlink:href="#ac"/><use transform="matrix(0.05,0,0,0.05,61.85,0)" xlink:href="#Q"/><use transform="matrix(0.05,0,0,0.05,65.80000000000001,0)" xlink:href="#F"/><use transform="matrix(0.05,0,0,0.05,75.80000000000001,0)" xlink:href="#H"/><use transform="matrix(0.05,0,0,0.05,84.80000000000001,0)" xlink:href="#J"/></g><g id="o"><use transform="matrix(0.05,0,0,0.05,0,0)" xlink:href="#L"/><use transform="matrix(0.05,0,0,0.05,14,0)" xlink:href="#Y"/><use transform="matrix(0.05,0,0,0.05,24,0)" xlink:href="#J"/><use transform="matrix(0.05,0,0,0.05,34,0)" xlink:href="#N"/><use transform="matrix(0.05,0,0,0.05,44,0)" xlink:href="#J"/><use transform="matrix(0.05,0,0,0.05,54,0)" xlink:href="#R"/></g><g id="p"><use transform="matrix(0.05,0,0,0.05,0,0)" xlink:href="#L"/><use transform="matrix(0.05,0,0,0.05,14,0)" xlink:href="#N"/></g><path d="M63-220v92h138v28H63V0H30v-248h175v28H63" id="ad"/><g id="q"><use transform="matrix(0.05,0,0,0.05,0,0)" xlink:href="#L"/><use transform="matrix(0.05,0,0,0.05,14,0)" xlink:href="#ad"/><use transform="matrix(0.05,0,0,0.05,24.950000000000003,0)" xlink:href="#ad"/></g><g id="r"><use transform="matrix(0.05,0,0,0.05,0,0)" xlink:href="#Z"/><use transform="matrix(0.05,0,0,0.05,12,0)" xlink:href="#I"/><use transform="matrix(0.05,0,0,0.05,17,0)" xlink:href="#G"/><use transform="matrix(0.05,0,0,0.05,27,0)" xlink:href="#K"/><use transform="matrix(0.05,0,0,0.05,32.95,0)" xlink:href="#I"/></g><use transform="matrix(0.05,0,0,0.05,0,0)" xlink:href="#U" id="s"/><g id="t"><use transform="matrix(0.05,0,0,0.05,0,0)" xlink:href="#Z"/><use transform="matrix(0.05,0,0,0.05,12,0)" xlink:href="#J"/><use transform="matrix(0.05,0,0,0.05,22,0)" xlink:href="#I"/></g><g id="u"><use transform="matrix(0.05,0,0,0.05,0,0)" xlink:href="#I"/><use transform="matrix(0.05,0,0,0.05,5,0)" xlink:href="#aa"/><use transform="matrix(0.05,0,0,0.05,8.95,0)" xlink:href="#X"/><use transform="matrix(0.05,0,0,0.05,23.9,0)" xlink:href="#J"/><use transform="matrix(0.05,0,0,0.05,33.9,0)" xlink:href="#K"/></g><g id="v"><use transform="matrix(0.05,0,0,0.05,0,0)" xlink:href="#E"/><use transform="matrix(0.05,0,0,0.05,10.3,0)" xlink:href="#aa"/><use transform="matrix(0.05,0,0,0.05,14.25,0)" xlink:href="#X"/><use transform="matrix(0.05,0,0,0.05,29.200000000000003,0)" xlink:href="#J"/><use transform="matrix(0.05,0,0,0.05,39.2,0)" xlink:href="#K"/></g><path d="M18-150v-26h174v26H18zm0 90v-26h174v26H18" id="ae"/><g id="w"><use transform="matrix(0.05,0,0,0.05,0,0)" xlink:href="#ae"/><use transform="matrix(0.05,0,0,0.05,10.5,0)" xlink:href="#ae"/></g><path d="M101-251c68 0 85 55 85 127S166 4 100 4C33 4 14-52 14-124c0-73 17-127 87-127zm-1 229c47 0 54-49 54-102s-4-102-53-102c-51 0-55 48-55 102 0 53 5 102 54 102" id="af"/><use transform="matrix(0.05,0,0,0.05,0,0)" xlink:href="#af" id="x"/><path d="M18-27v-27l151-64-151-65v-27l175 74v36" id="ag"/><use transform="matrix(0.05,0,0,0.05,0,0)" xlink:href="#ag" id="y"/><path d="M190 0L58-211 59 0H30v-248h39L202-35l-2-213h31V0h-41" id="ah"/><g id="z"><use transform="matrix(0.05,0,0,0.05,0,0)" xlink:href="#L"/><use transform="matrix(0.05,0,0,0.05,14,0)" xlink:href="#ah"/></g><path d="M106-169C34-169 62-67 57 0H25v-261h32l-1 103c12-21 28-36 61-36 89 0 53 116 60 194h-32v-121c2-32-8-49-39-48" id="ai"/><g id="A"><use transform="matrix(0.05,0,0,0.05,0,0)" xlink:href="#ai"/><use transform="matrix(0.05,0,0,0.05,10,0)" xlink:href="#J"/><use transform="matrix(0.05,0,0,0.05,20,0)" xlink:href="#G"/><use transform="matrix(0.05,0,0,0.05,30,0)" xlink:href="#I"/><use transform="matrix(0.05,0,0,0.05,35,0)" xlink:href="#J"/><use transform="matrix(0.05,0,0,0.05,45,0)" xlink:href="#K"/></g><path d="M141 0L90-78 38 0H4l68-98-65-92h35l48 74 47-74h35l-64 92 68 98h-35" id="aj"/><g id="B"><use transform="matrix(0.05,0,0,0.05,0,0)" xlink:href="#S"/><use transform="matrix(0.05,0,0,0.05,12,0)" xlink:href="#aj"/><use transform="matrix(0.05,0,0,0.05,21,0)" xlink:href="#aa"/><use transform="matrix(0.05,0,0,0.05,24.95,0)" xlink:href="#I"/></g><g id="C"><use transform="matrix(0.05,0,0,0.05,0,0)" xlink:href="#L"/><use transform="matrix(0.05,0,0,0.05,14,0)" xlink:href="#ad"/><use transform="matrix(0.05,0,0,0.05,24.950000000000003,0)" xlink:href="#ad"/></g><g id="D"><use transform="matrix(0.05,0,0,0.05,0,0)" xlink:href="#ai"/><use transform="matrix(0.05,0,0,0.05,10,0)" xlink:href="#J"/><use transform="matrix(0.05,0,0,0.05,20,0)" xlink:href="#G"/><use transform="matrix(0.05,0,0,0.05,30,0)" xlink:href="#I"/><use transform="matrix(0.05,0,0,0.05,35,0)" xlink:href="#J"/><use transform="matrix(0.05,0,0,0.05,45,0)" xlink:href="#K"/></g></defs></g></svg>