<svg xmlns="http://www.w3.org/2000/svg" xmlns:xlink="http://www.w3.org/1999/xlink" xmlns:lucid="lucid" width="620" height="420"><g transform="translate(-360 -100)" lucid:page-tab-id="0_0"><path d="M396 120c-8.84 0-16 7.16-16 16v48c0 8.84 7.16 16 16 16h208c8.84 0 16-7.16 16-16v-48c0-8.84-7.16-16-16-16z" stroke="#000" stroke-width="2" fill="#fff"/><use xlink:href="#a" transform="matrix(1,0,0,1,388,128) translate(97.525 35.6)"/><path d="M400 400c-11.05 0-20 8.95-20 20v60c0 11.05 8.95 20 20 20h200c11.05 0 20-8.95 20-20v-60c0-11.05-8.95-20-20-20z" stroke="#000" stroke-width="2" fill="#fff"/><use xlink:href="#b" transform="matrix(1,0,0,1,388,408) translate(87.525 46.1)"/><path d="M820 400c-11.05 0-20 8.95-20 20v60c0 11.05 8.95 20 20 20h120c11.05 0 20-8.95 20-20v-60c0-11.05-8.95-20-20-20z" stroke="#000" stroke-width="2" fill="#fff"/><use xlink:href="#c" transform="matrix(1,0,0,1,808,408) translate(41.5 46.1)"/><path d="M431.28 380.76h-2V310.8h2zm.4-91.56h-2V201h2zM431.67 201h-2v-3h2zM430.28 395.76l-4.64-14.26h9.27z"/><path d="M430.28 399l-6.02-18.5h12.03zm-3.26-16.5l3.26 10.03 3.25-10.03z"/><use xlink:href="#d" transform="matrix(1,0,0,1,405.54636150234745,289.2) translate(0 14.4)"/><path d="M573.4 399h-2l1-88.2h2zm2.06-179.75l-.8 69.95h-2l.8-69.98zM573.4 399l-.03 3h-2l.04-3zM579.1 218.55l-9.27-.1 4.8-14.2z"/><path d="M580.47 219.57l-12.03-.14 6.23-18.43zm-9.25-2.1l6.52.07-3.15-10.07z"/><use xlink:href="#e" transform="matrix(1,0,0,1,555.0361502347419,289.2) translate(0 14.4)"/><path d="M684.5 472.43H621v-2h63.5zm96.26 0H735.5v-2h45.26zM621 472.43h-3v-2h3zM795.76 471.43l-14.26 4.63v-9.27z"/><path d="M799 471.43l-18.5 6v-12zm-16.5 3.26l10.03-3.27-10.03-3.26z"/><use xlink:href="#f" transform="matrix(1,0,0,1,684.5,460.62857142857143) translate(0 14.4)"/><path d="M716.63 427.67h-77.4v-2h77.4zm82.37 0h-15.47v-2H799zM802 427.67h-3v-2h3zM638.5 431.3l-14.26-4.63 14.26-4.64z"/><path d="M639.5 432.68l-18.5-6 18.5-6.03zm-12.03-6l10.03 3.25v-6.52z"/><use xlink:href="#g" transform="matrix(1,0,0,1,716.6327986968655,415.8666666666667) translate(0 14.4)"/><path d="M881 399h-2v-86.87h2zm0-108.47h-2V161H639.24v-2H881zM881 402h-2v-3h2zM638.5 164.64L624.24 160l14.26-4.64z"/><path d="M639.5 166l-18.5-6 18.5-6zm-12.03-6l10.03 3.26v-6.52z"/><use xlink:href="#e" transform="matrix(1,0,0,1,861.5,290.5333333333333) translate(0 14.4)"/><path d="M501 399h-2v-88.2h2zm0-109.8h-2v-69.96h2zM501 402h-2v-3h2zM504.64 218.5h-9.28l4.64-14.26z"/><path d="M506 219.5h-12l6-18.5zm-9.26-2h6.52L500 207.47z"/><use xlink:href="#h" transform="matrix(1,0,0,1,467.9,289.2) translate(0 14.4)"/><defs><path d="M33 0v-248h34V0H33" id="i"/><path d="M85-194c31 0 48 13 60 33l-1-100h32l1 261h-30c-2-10 0-23-3-31C134-8 116 4 85 4 32 4 16-35 15-94c0-66 23-100 70-100zm9 24c-40 0-46 34-46 75 0 40 6 74 45 74 42 0 51-32 51-76 0-42-9-74-50-73" id="j"/><path d="M24 0v-261h32V0H24" id="k"/><path d="M100-194c63 0 86 42 84 106H49c0 40 14 67 53 68 26 1 43-12 49-29l28 8c-11 28-37 45-77 45C44 4 14-33 15-96c1-61 26-98 85-98zm52 81c6-60-76-77-97-28-3 7-6 17-6 28h103" id="l"/><g id="a"><use transform="matrix(0.05,0,0,0.05,0,0)" xlink:href="#i"/><use transform="matrix(0.05,0,0,0.05,5,0)" xlink:href="#j"/><use transform="matrix(0.05,0,0,0.05,15,0)" xlink:href="#k"/><use transform="matrix(0.05,0,0,0.05,18.95,0)" xlink:href="#l"/></g><path d="M205 0l-28-72H64L36 0H1l101-248h38L239 0h-34zm-38-99l-47-123c-12 45-31 82-46 123h93" id="m"/><path d="M96-169c-40 0-48 33-48 73s9 75 48 75c24 0 41-14 43-38l32 2c-6 37-31 61-74 61-59 0-76-41-82-99-10-93 101-131 147-64 4 7 5 14 7 22l-32 3c-4-21-16-35-41-35" id="n"/><path d="M59-47c-2 24 18 29 38 22v24C64 9 27 4 27-40v-127H5v-23h24l9-43h21v43h35v23H59v120" id="o"/><path d="M24-231v-30h32v30H24zM24 0v-190h32V0H24" id="p"/><path d="M108 0H70L1-190h34L89-25l56-165h34" id="q"/><g id="b"><use transform="matrix(0.05,0,0,0.05,0,0)" xlink:href="#m"/><use transform="matrix(0.05,0,0,0.05,12,0)" xlink:href="#n"/><use transform="matrix(0.05,0,0,0.05,21,0)" xlink:href="#o"/><use transform="matrix(0.05,0,0,0.05,26,0)" xlink:href="#p"/><use transform="matrix(0.05,0,0,0.05,29.950000000000003,0)" xlink:href="#q"/><use transform="matrix(0.05,0,0,0.05,38.95,0)" xlink:href="#l"/></g><path d="M30-248c87 1 191-15 191 75 0 78-77 80-158 76V0H30v-248zm33 125c57 0 124 11 124-50 0-59-68-47-124-48v98" id="r"/><path d="M141-36C126-15 110 5 73 4 37 3 15-17 15-53c-1-64 63-63 125-63 3-35-9-54-41-54-24 1-41 7-42 31l-33-3c5-37 33-52 76-52 45 0 72 20 72 64v82c-1 20 7 32 28 27v20c-31 9-61-2-59-35zM48-53c0 20 12 33 32 33 41-3 63-29 60-74-43 2-92-5-92 41" id="s"/><path d="M84 4C-5 8 30-112 23-190h32v120c0 31 7 50 39 49 72-2 45-101 50-169h31l1 190h-30c-1-10 1-25-2-33-11 22-28 36-60 37" id="t"/><path d="M135-143c-3-34-86-38-87 0 15 53 115 12 119 90S17 21 10-45l28-5c4 36 97 45 98 0-10-56-113-15-118-90-4-57 82-63 122-42 12 7 21 19 24 35" id="u"/><g id="c"><use transform="matrix(0.05,0,0,0.05,0,0)" xlink:href="#r"/><use transform="matrix(0.05,0,0,0.05,12,0)" xlink:href="#s"/><use transform="matrix(0.05,0,0,0.05,22,0)" xlink:href="#t"/><use transform="matrix(0.05,0,0,0.05,32,0)" xlink:href="#u"/><use transform="matrix(0.05,0,0,0.05,41,0)" xlink:href="#l"/><use transform="matrix(0.05,0,0,0.05,51,0)" xlink:href="#j"/></g><path d="M185-189c-5-48-123-54-124 2 14 75 158 14 163 119 3 78-121 87-175 55-17-10-28-26-33-46l33-7c5 56 141 63 141-1 0-78-155-14-162-118-5-82 145-84 179-34 5 7 8 16 11 25" id="v"/><path d="M114-163C36-179 61-72 57 0H25l-1-190h30c1 12-1 29 2 39 6-27 23-49 58-41v29" id="w"/><path d="M87 75C49 33 22-17 22-94c0-76 28-126 65-167h31c-38 41-64 92-64 168S80 34 118 75H87" id="x"/><path d="M33-261c38 41 65 92 65 168S71 34 33 75H2C39 34 66-17 66-93S39-220 2-261h31" id="y"/><g id="d"><use transform="matrix(0.05,0,0,0.05,0,0)" xlink:href="#v"/><use transform="matrix(0.05,0,0,0.05,12,0)" xlink:href="#o"/><use transform="matrix(0.05,0,0,0.05,17,0)" xlink:href="#s"/><use transform="matrix(0.05,0,0,0.05,27,0)" xlink:href="#w"/><use transform="matrix(0.05,0,0,0.05,32.95,0)" xlink:href="#o"/><use transform="matrix(0.05,0,0,0.05,37.95,0)" xlink:href="#x"/><use transform="matrix(0.05,0,0,0.05,43.900000000000006,0)" xlink:href="#y"/></g><path d="M100-194c62-1 85 37 85 99 1 63-27 99-86 99S16-35 15-95c0-66 28-99 85-99zM99-20c44 1 53-31 53-75 0-43-8-75-51-75s-53 32-53 75 10 74 51 75" id="z"/><path d="M115-194c55 1 70 41 70 98S169 2 115 4C84 4 66-9 55-30l1 105H24l-1-265h31l2 30c10-21 28-34 59-34zm-8 174c40 0 45-34 45-75s-6-73-45-74c-42 0-51 32-51 76 0 43 10 73 51 73" id="A"/><g id="e"><use transform="matrix(0.05,0,0,0.05,0,0)" xlink:href="#v"/><use transform="matrix(0.05,0,0,0.05,12,0)" xlink:href="#o"/><use transform="matrix(0.05,0,0,0.05,17,0)" xlink:href="#z"/><use transform="matrix(0.05,0,0,0.05,27,0)" xlink:href="#A"/></g><g id="f"><use transform="matrix(0.05,0,0,0.05,0,0)" xlink:href="#r"/><use transform="matrix(0.05,0,0,0.05,12,0)" xlink:href="#s"/><use transform="matrix(0.05,0,0,0.05,22,0)" xlink:href="#t"/><use transform="matrix(0.05,0,0,0.05,32,0)" xlink:href="#u"/><use transform="matrix(0.05,0,0,0.05,41,0)" xlink:href="#l"/></g><path d="M233-177c-1 41-23 64-60 70L243 0h-38l-65-103H63V0H30v-248c88 3 205-21 203 71zM63-129c60-2 137 13 137-47 0-61-80-42-137-45v92" id="B"/><path d="M210-169c-67 3-38 105-44 169h-31v-121c0-29-5-50-35-48C34-165 62-65 56 0H25l-1-190h30c1 10-1 24 2 32 10-44 99-50 107 0 11-21 27-35 58-36 85-2 47 119 55 194h-31v-121c0-29-5-49-35-48" id="C"/><g id="g"><use transform="matrix(0.05,0,0,0.05,0,0)" xlink:href="#B"/><use transform="matrix(0.05,0,0,0.05,12.950000000000001,0)" xlink:href="#l"/><use transform="matrix(0.05,0,0,0.05,22.950000000000003,0)" xlink:href="#u"/><use transform="matrix(0.05,0,0,0.05,31.950000000000003,0)" xlink:href="#t"/><use transform="matrix(0.05,0,0,0.05,41.95,0)" xlink:href="#C"/><use transform="matrix(0.05,0,0,0.05,56.900000000000006,0)" xlink:href="#l"/></g><path d="M127-220V0H93v-220H8v-28h204v28h-85" id="D"/><g id="h"><use transform="matrix(0.05,0,0,0.05,0,0)" xlink:href="#D"/><use transform="matrix(0.05,0,0,0.05,10.3,0)" xlink:href="#p"/><use transform="matrix(0.05,0,0,0.05,14.25,0)" xlink:href="#C"/><use transform="matrix(0.05,0,0,0.05,29.200000000000003,0)" xlink:href="#l"/><use transform="matrix(0.05,0,0,0.05,39.2,0)" xlink:href="#z"/><use transform="matrix(0.05,0,0,0.05,49.2,0)" xlink:href="#t"/><use transform="matrix(0.05,0,0,0.05,59.2,0)" xlink:href="#o"/></g></defs></g></svg>