<svg xmlns="http://www.w3.org/2000/svg" xmlns:xlink="http://www.w3.org/1999/xlink" xmlns:lucid="lucid" width="1020" height="420"><g transform="translate(-240 -180)" lucid:page-tab-id="0_0"><path d="M984 200c-35.35 0-64 28.65-64 64v252c0 35.35 28.65 64 64 64h192c35.35 0 64-28.65 64-64V264c0-35.35-28.65-64-64-64z" stroke="#000" stroke-width="2" fill="#fff"/><path d="M920 244h320" stroke="#000" stroke-width="2" fill="none"/><use xlink:href="#a" transform="matrix(1,0,0,1,984,200) translate(70 25.6)"/><path d="M1000 280c-27.6 0-50 22.4-50 50v160c0 27.6 22.4 50 50 50h150c27.6 0 50-22.4 50-50V330c0-27.6-22.4-50-50-50z" stroke="#000" stroke-width="2" fill="#fff"/><path d="M950 324h250" stroke="#000" stroke-width="2" fill="none"/><use xlink:href="#b" transform="matrix(1,0,0,1,1000,280) translate(49 25.6)"/><path d="M376 320c-19.88 0-36 16.12-36 36v108c0 19.88 16.12 36 36 36h188c19.88 0 36-16.12 36-36V356c0-19.88-16.12-36-36-36z" stroke="#000" stroke-width="2" fill="#fff"/><path d="M340 364h260" stroke="#000" stroke-width="2" fill="none"/><use xlink:href="#c" transform="matrix(1,0,0,1,392,320) translate(52 25.6)"/><path d="M791 429h187v2H790.48v-3.06h.52zm-171.5.94v-2h101.08v2z"/><path d="M979 431h-1.03v-2H979zM618.5 433.58l-14.26-4.64 14.26-4.63z"/><path d="M619.5 434.96l-18.5-6.02 18.5-6zm-12.03-6.02l10.03 3.26v-6.5z"/><use xlink:href="#d" transform="matrix(1,0,0,1,720.581782403369,418.1446290844186) translate(0 14.4)"/><path d="M1008 360c-15.46 0-28 12.54-28 28v84c0 15.46 12.54 28 28 28h124c15.46 0 28-12.54 28-28v-84c0-15.46-12.54-28-28-28z" stroke="#000" stroke-width="2" fill="#fff"/><path d="M980 404h180" stroke="#000" stroke-width="2" fill="none"/><use xlink:href="#e" transform="matrix(1,0,0,1,1016,360) translate(28 25.6)"/><path d="M721.14 399.65l-20.42 2.6-41.06 2.56-40.14.8-.04-2 40.1-.8 40.95-2.53 20.6-2.64zM948 380.4l-57.58 1.1-40.96 2.54-37.54 3.97-20.88 2.68v-2L811.7 386l37.6-3.97 41.04-2.55 57.64-1.1z"/><path d="M949 380.37l-1 .02-.05-2 1.05-.03zM618.6 409.24l-14.36-4.35 14.17-4.92z"/><path d="M619.6 410.6l-18.6-5.65 18.38-6.37zm-12.13-5.78l10.1 3.07-.13-6.53z"/><use xlink:href="#f" transform="matrix(1,0,0,1,721.1430129026878,383.3560076245689) translate(0 14.4)"/><path d="M905.45 469.58l55.07 1.05-.04 2-55.14-1.05L790.2 460.6v-2zm-230.8-20.32l45.64 2.84v2l-45.73-2.84-72.58-1.38.02-2z"/><path d="M602.05 447.88l-.04 2-1-.02v-2zM975.76 471.92l-14.35 4.37.2-9.28z"/><path d="M979 472l-18.6 5.64.22-12.02zm-16.56 2.93l10.1-3.07-9.98-3.45z"/><use xlink:href="#d" transform="matrix(1,0,0,1,720.2866199145819,445.4776810928594) translate(0 14.4)"/><path d="M725.13 351.16l-4.47 1.1-8.7 2.55-41.52 13.2-10.84 2.66-10.3 2.08-10.34 1.64-10.75 1.25-8.64.63-.14-2 8.6-.63 10.67-1.23 10.25-1.63 10.2-2.06 10.75-2.63 41.47-13.17 8.77-2.57 5-1.23zm192.9-32.08l-10.37.2-9.68.6-8.54.9-7.8 1.15-7.36 1.4-7.37 1.74-8.03 2.25-11.7 3.84-26.4 9.03-8.1 2.26-7.4 1.74-7.4 1.4-2.84.43V344l2.5-.36 7.32-1.4 7.33-1.72 8-2.24 26.34-9.02 11.76-3.85 8.13-2.27 7.46-1.75 7.46-1.42 7.87-1.16 8.6-.9 9.78-.6 10.4-.22z"/><path d="M919 319.06l-1 .02-.05-2 1.05-.03zM618.64 379.93l-14.4-4.16 14.1-5.1z"/><path d="M619.7 381.27l-18.7-5.4 18.3-6.62zm-12.23-5.6l10.13 2.92-.2-6.53z"/><use xlink:href="#g" transform="matrix(1,0,0,1,725.1304767552375,336.68406657464703) translate(0 14.4)"/><path d="M300 340c0 11.05-8.95 20-20 20s-20-8.95-20-20 8.95-20 20-20 20 8.95 20 20z" stroke="#000" stroke-width="2"/><path d="M280 362v48h40.5" stroke="#000" stroke-width="2" fill="none"/><path d="M279.96 361l1.04-.03v1.06h-2v-1.15z"/><path d="M335.76 410l-14.26 4.64v-9.28z" stroke="#000" stroke-width="2"/><defs><path d="M30 0v-248h33v221h125V0H30" id="h"/><path d="M27 0v-27h64v-190l-56 39v-29l58-41h29v221h61V0H27" id="i"/><path d="M-5 72V49h209v23H-5" id="j"/><path d="M185-189c-5-48-123-54-124 2 14 75 158 14 163 119 3 78-121 87-175 55-17-10-28-26-33-46l33-7c5 56 141 63 141-1 0-78-155-14-162-118-5-82 145-84 179-34 5 7 8 16 11 25" id="k"/><path d="M101-251c82-7 93 87 43 132L82-64C71-53 59-42 53-27h129V0H18c2-99 128-94 128-182 0-28-16-43-45-43s-46 15-49 41l-32-3c6-41 34-60 81-64" id="l"/><g id="a"><use transform="matrix(0.05,0,0,0.05,0,0)" xlink:href="#h"/><use transform="matrix(0.05,0,0,0.05,10,0)" xlink:href="#i"/><use transform="matrix(0.05,0,0,0.05,20,0)" xlink:href="#j"/><use transform="matrix(0.05,0,0,0.05,30,0)" xlink:href="#k"/><use transform="matrix(0.05,0,0,0.05,42,0)" xlink:href="#l"/></g><g id="b"><use transform="matrix(0.05,0,0,0.05,0,0)" xlink:href="#h"/><use transform="matrix(0.05,0,0,0.05,10,0)" xlink:href="#l"/><use transform="matrix(0.05,0,0,0.05,20,0)" xlink:href="#j"/><use transform="matrix(0.05,0,0,0.05,30,0)" xlink:href="#k"/><use transform="matrix(0.05,0,0,0.05,42,0)" xlink:href="#i"/></g><g id="c"><use transform="matrix(0.05,0,0,0.05,0,0)" xlink:href="#h"/><use transform="matrix(0.05,0,0,0.05,10,0)" xlink:href="#i"/><use transform="matrix(0.05,0,0,0.05,20,0)" xlink:href="#j"/><use transform="matrix(0.05,0,0,0.05,30,0)" xlink:href="#k"/><use transform="matrix(0.05,0,0,0.05,42,0)" xlink:href="#i"/></g><path d="M30 0v-248h187v28H63v79h144v27H63v87h162V0H30" id="m"/><path d="M137 0h-34L2-248h35l83 218 83-218h36" id="n"/><path d="M190 0L58-211 59 0H30v-248h39L202-35l-2-213h31V0h-41" id="o"/><path d="M127-220V0H93v-220H8v-28h204v28h-85" id="p"/><g id="d"><use transform="matrix(0.05,0,0,0.05,0,0)" xlink:href="#m"/><use transform="matrix(0.05,0,0,0.05,12,0)" xlink:href="#n"/><use transform="matrix(0.05,0,0,0.05,24,0)" xlink:href="#m"/><use transform="matrix(0.05,0,0,0.05,36,0)" xlink:href="#o"/><use transform="matrix(0.05,0,0,0.05,48.95,0)" xlink:href="#p"/><use transform="matrix(0.05,0,0,0.05,59.900000000000006,0)" xlink:href="#i"/></g><path d="M126-127c33 6 58 20 58 59 0 88-139 92-164 29-3-8-5-16-6-25l32-3c6 27 21 44 54 44 32 0 52-15 52-46 0-38-36-46-79-43v-28c39 1 72-4 72-42 0-27-17-43-46-43-28 0-47 15-49 41l-32-3c6-42 35-63 81-64 48-1 79 21 79 65 0 36-21 52-52 59" id="q"/><g id="e"><use transform="matrix(0.05,0,0,0.05,0,0)" xlink:href="#h"/><use transform="matrix(0.05,0,0,0.05,10,0)" xlink:href="#q"/><use transform="matrix(0.05,0,0,0.05,20,0)" xlink:href="#j"/><use transform="matrix(0.05,0,0,0.05,30,0)" xlink:href="#k"/><use transform="matrix(0.05,0,0,0.05,42,0)" xlink:href="#i"/></g><g id="f"><use transform="matrix(0.05,0,0,0.05,0,0)" xlink:href="#m"/><use transform="matrix(0.05,0,0,0.05,12,0)" xlink:href="#n"/><use transform="matrix(0.05,0,0,0.05,24,0)" xlink:href="#m"/><use transform="matrix(0.05,0,0,0.05,36,0)" xlink:href="#o"/><use transform="matrix(0.05,0,0,0.05,48.95,0)" xlink:href="#p"/><use transform="matrix(0.05,0,0,0.05,59.900000000000006,0)" xlink:href="#l"/></g><g id="g"><use transform="matrix(0.05,0,0,0.05,0,0)" xlink:href="#m"/><use transform="matrix(0.05,0,0,0.05,12,0)" xlink:href="#n"/><use transform="matrix(0.05,0,0,0.05,24,0)" xlink:href="#m"/><use transform="matrix(0.05,0,0,0.05,36,0)" xlink:href="#o"/><use transform="matrix(0.05,0,0,0.05,48.95,0)" xlink:href="#p"/><use transform="matrix(0.05,0,0,0.05,59.900000000000006,0)" xlink:href="#q"/></g></defs></g></svg>